<svg width="22" height="27" viewBox="0 0 22 27" fill="none" xmlns="http://www.w3.org/2000/svg">
  <path fill-rule="evenodd" clip-rule="evenodd"
    d="M10.5806 21.2895L3.16646 25.3513C2.57449 25.6589 1.8452 25.4411 1.51886 24.8593V24.8593C1.42444 24.679 1.3735 24.4792 1.37012 24.2757V6.27803C1.37012 2.84553 3.71565 1.47253 7.09094 1.47253H15.02C18.2923 1.47253 20.7408 2.754 20.7408 6.04919V24.2757C20.7408 24.6004 20.6118 24.9118 20.3822 25.1414C20.1527 25.371 19.8413 25.5 19.5166 25.5C19.3095 25.4967 19.1059 25.4458 18.9216 25.3513L11.4616 21.2895C11.1868 21.141 10.8555 21.141 10.5806 21.2895Z"
    stroke="currentColor" stroke-width="1.5" stroke-linecap="round" stroke-linejoin="round" />
  <path d="M6.46191 9.65326H15.5809" stroke="currentColor" stroke-width="1.5" stroke-linecap="round"
    stroke-linejoin="round" />
</svg>