<svg width="41" height="33" viewBox="0 0 41 33" fill="none" xmlns="http://www.w3.org/2000/svg">
<path d="M23.9688 1.96973V6.50723" stroke="#2978D1" stroke-width="3" stroke-linecap="round" stroke-linejoin="round"/>
<path d="M23.9688 27.3008V31.0958" stroke="#2978D1" stroke-width="3" stroke-linecap="round" stroke-linejoin="round"/>
<path d="M23.9688 20.8587V11.8193" stroke="#2978D1" stroke-width="3" stroke-linecap="round" stroke-linejoin="round"/>
<path fill-rule="evenodd" clip-rule="evenodd" d="M33.0665 31.5C36.4829 31.5 39.25 28.7673 39.25 25.3934V20.5324C36.9894 20.5324 35.1687 18.7345 35.1687 16.5019C35.1687 14.2694 36.9894 12.4695 39.25 12.4695L39.248 7.6066C39.248 4.23272 36.479 1.5 33.0645 1.5H7.93547C4.52104 1.5 1.75196 4.23272 1.75196 7.6066L1.75 12.6278C4.01064 12.6278 5.83127 14.2694 5.83127 16.5019C5.83127 18.7345 4.01064 20.5324 1.75 20.5324V25.3934C1.75 28.7673 4.51713 31.5 7.93351 31.5H33.0665Z" stroke="#2978D1" stroke-width="3" stroke-linecap="round" stroke-linejoin="round"/>
</svg>
