<svg width="35" height="35" viewBox="0 0 39 35" fill="none" xmlns="http://www.w3.org/2000/svg">
<path fill-rule="evenodd" clip-rule="evenodd" d="M30.4819 33.2819C33.9975 33.2819 36.8438 30.4338 36.8438 26.92V21.8575C34.5187 21.8575 32.6438 19.9825 32.6438 17.6594C32.6438 15.3344 34.5187 13.4613 36.8438 13.4613L36.84 8.39312C36.84 4.87937 33.9937 2.03125 30.48 2.03125H8.52C5.00625 2.03125 2.15813 4.87937 2.15813 8.39312L2.15625 13.6244C4.47937 13.6244 6.35438 15.3344 6.35438 17.6594C6.35438 19.9825 4.47937 21.8575 2.15625 21.8575V26.92C2.15625 30.4338 5.0025 33.2819 8.51625 33.2819H30.4819Z" stroke="#FFBF00" stroke-width="3" stroke-linecap="round" stroke-linejoin="round"/>
<path fill-rule="evenodd" clip-rule="evenodd" d="M19.4984 20.9768L22.7609 22.6924C23.0665 22.8518 23.4246 22.593 23.3665 22.2536L22.7421 18.618L25.384 16.0474C25.6315 15.8055 25.4946 15.3874 25.1534 15.3368L21.5046 14.8061L19.8715 11.4986C19.7196 11.1893 19.279 11.1893 19.1252 11.4986L17.4921 14.8061L13.8452 15.3368C13.504 15.3874 13.3671 15.8055 13.6146 16.0474L16.2546 18.618L15.6302 22.2536C15.5721 22.593 15.9302 22.8518 16.2359 22.6924L19.4984 20.9768Z" stroke="#FFBF00" stroke-width="3" stroke-linecap="round" stroke-linejoin="round"/>
</svg>
